<svg width="32" height="32" viewBox="0 0 32 32" fill="none" xmlns="http://www.w3.org/2000/svg">
<path d="M13.7266 16.0016C13.7266 17.4001 14.8527 18.5343 16.24 18.5343C17.2147 18.5343 18.0499 17.9698 18.4669 17.153L18.4739 17.1594L23.0622 8.8179L15.0074 13.7952L15.015 13.8029C14.25 14.2378 13.7266 15.0539 13.7266 16.0016Z" fill="#A7A7A7"/>
<path d="M26.3658 3.93319C23.7903 1.66485 20.4625 0.216488 16.6601 0V3.84889C19.8288 4.05197 21.6958 5.06608 23.5704 6.64855L26.3658 3.93319Z" fill="#A7A7A7"/>
<path d="M28.1599 14.8017H31.975C31.719 10.97 30.2316 7.82167 27.9223 5.24169L25.2232 7.94492C26.8494 9.82243 27.9191 12.2472 28.1599 14.8017Z" fill="#A7A7A7"/>
<path d="M28.1779 16.7175C27.7742 23.1036 22.5237 28.1684 16.1103 28.1684C9.43383 28.1684 3.80243 22.7121 3.80243 15.985C3.80243 9.58103 9.05549 4.34126 14.7591 3.84953V0.000638277C6.52054 0.498114 0 7.4832 0 16.0016C0 24.8418 7.2373 32 16.0101 32C24.5225 32 31.5938 25.0194 32 16.7175H28.1779Z" fill="#A7A7A7"/>
</svg>
